<svg width="76" height="75" viewBox="0 0 76 75" fill="none" xmlns="http://www.w3.org/2000/svg">
<circle cx="37.8007" cy="37.5" r="37.5" fill="white"/>
<path d="M27.3171 29.3301C26.7077 29.9395 25.9811 30.4141 25.1374 30.7539C24.2995 31.0938 23.3825 31.2637 22.3864 31.2637C21.3962 31.2637 20.4792 31.0938 19.6354 30.7539C18.7917 30.4141 18.0593 29.9365 17.4382 29.3213C16.8171 28.7002 16.3337 27.9736 15.988 27.1416C15.6481 26.3037 15.4782 25.3926 15.4782 24.4082C15.4782 23.418 15.6481 22.5068 15.988 21.6748C16.3337 20.8428 16.8171 20.1191 17.4382 19.5039C18.0593 18.8828 18.7917 18.4023 19.6354 18.0625C20.4792 17.7227 21.3962 17.5527 22.3864 17.5527C23.3766 17.5527 24.2907 17.7227 25.1286 18.0625C25.9665 18.4023 26.6901 18.874 27.2995 19.4775L25.6823 21.1211C25.278 20.6406 24.7917 20.2656 24.2233 19.9961C23.655 19.7266 23.0309 19.5918 22.3512 19.5918C21.7067 19.5918 21.1091 19.7119 20.5583 19.9521C20.0134 20.1924 19.5387 20.5293 19.1344 20.9629C18.7302 21.3965 18.4137 21.9062 18.1852 22.4922C17.9626 23.0781 17.8512 23.7168 17.8512 24.4082C17.8512 25.0996 17.9626 25.7383 18.1852 26.3242C18.4137 26.9043 18.7302 27.4141 19.1344 27.8535C19.5387 28.2871 20.0134 28.624 20.5583 28.8643C21.1091 29.1045 21.7067 29.2246 22.3512 29.2246C23.0309 29.2246 23.655 29.0898 24.2233 28.8203C24.7917 28.5508 25.278 28.1758 25.6823 27.6953L27.3171 29.3301ZM32.471 31H30.1594V17.8164H32.471V31ZM36.8163 19.8818C36.5116 19.8818 36.2538 19.7764 36.0428 19.5654C35.8378 19.3486 35.7352 19.0879 35.7352 18.7832C35.7352 18.4844 35.8378 18.2295 36.0428 18.0186C36.2538 17.8018 36.5116 17.6934 36.8163 17.6934C37.1268 17.6934 37.3876 17.8018 37.5985 18.0186C37.8094 18.2295 37.9149 18.4844 37.9149 18.7832C37.9149 19.0879 37.8094 19.3486 37.5985 19.5654C37.3876 19.7764 37.1268 19.8818 36.8163 19.8818ZM37.8973 31H35.7352V22.2109H37.8973V31ZM48.7993 29.6465C48.3716 30.1328 47.853 30.5107 47.2436 30.7803C46.6343 31.0439 45.9692 31.1758 45.2485 31.1758C44.3579 31.1758 43.5581 30.9766 42.8491 30.5781C42.146 30.1797 41.5893 29.6377 41.1792 28.9521C40.7749 28.2607 40.5727 27.4785 40.5727 26.6055C40.5727 25.7324 40.7749 24.9531 41.1792 24.2676C41.5893 23.5762 42.146 23.0312 42.8491 22.6328C43.5581 22.2344 44.3579 22.0352 45.2485 22.0352C45.9634 22.0352 46.6225 22.167 47.2261 22.4307C47.8354 22.6943 48.354 23.0664 48.7817 23.5469L47.5161 24.8916C47.2524 24.6045 46.9331 24.3818 46.5581 24.2236C46.1889 24.0654 45.7964 23.9863 45.3803 23.9863C44.8764 23.9863 44.4282 24.0977 44.0356 24.3203C43.6489 24.543 43.3442 24.8506 43.1216 25.2432C42.9048 25.6357 42.7964 26.0869 42.7964 26.5967C42.7964 27.1064 42.9048 27.5605 43.1216 27.959C43.3442 28.3516 43.6489 28.6621 44.0356 28.8906C44.4282 29.1133 44.8764 29.2246 45.3803 29.2246C45.7964 29.2246 46.1919 29.1455 46.5669 28.9873C46.9419 28.8232 47.2583 28.6006 47.5161 28.3193L48.7993 29.6465ZM53.5665 31H51.4044V17.8164H53.5665V26.3154L54.3663 25.3398L57.3282 22.2109H60.044L56.3702 26.0957L60.5098 31H57.7237L54.876 27.4932L53.5665 28.7852V31ZM12.3985 50.7715C11.754 51.041 11.13 51.1758 10.5264 51.1758C9.91121 51.1758 9.36921 51.0439 8.90046 50.7803C8.43757 50.5166 8.07429 50.1504 7.81062 49.6816C7.55281 49.207 7.4239 48.6562 7.4239 48.0293V44.1445H5.88581V42.2109H7.53816V40.0137H9.58601V42.2109H12.0909V44.1445H9.58601V47.6338C9.58601 48.1318 9.72078 48.5244 9.99031 48.8115C10.2657 49.0986 10.6085 49.2422 11.0186 49.2422C11.3819 49.2422 11.7423 49.1309 12.0997 48.9082L12.3985 50.7715ZM19.0026 51.1758C18.112 51.1758 17.3122 50.9766 16.6032 50.5781C15.9001 50.1797 15.3434 49.6377 14.9333 48.9521C14.529 48.2607 14.3268 47.4785 14.3268 46.6055C14.3268 45.7324 14.529 44.9531 14.9333 44.2676C15.3434 43.5762 15.9001 43.0312 16.6032 42.6328C17.3122 42.2344 18.112 42.0352 19.0026 42.0352C19.8991 42.0352 20.6989 42.2344 21.402 42.6328C22.1052 43.0312 22.6559 43.5762 23.0544 44.2676C23.4587 44.9531 23.6608 45.7324 23.6608 46.6055C23.6608 47.4785 23.4587 48.2607 23.0544 48.9521C22.6559 49.6377 22.1052 50.1797 21.402 50.5781C20.6989 50.9766 19.8991 51.1758 19.0026 51.1758ZM18.9938 49.2334C19.4626 49.2334 19.8815 49.1191 20.2507 48.8906C20.6198 48.6621 20.9098 48.3486 21.1208 47.9502C21.3376 47.5518 21.446 47.1006 21.446 46.5967C21.446 46.0986 21.3376 45.6533 21.1208 45.2607C20.9098 44.8623 20.6198 44.5488 20.2507 44.3203C19.8815 44.0918 19.4626 43.9775 18.9938 43.9775C18.5309 43.9775 18.112 44.0918 17.737 44.3203C17.3678 44.5488 17.0749 44.8623 16.8581 45.2607C16.6471 45.6533 16.5417 46.0986 16.5417 46.5967C16.5417 47.1006 16.6471 47.5518 16.8581 47.9502C17.0749 48.3486 17.3678 48.6621 17.737 48.8906C18.112 49.1191 18.5309 49.2334 18.9938 49.2334ZM30.7694 49.6289L31.868 47.8535C32.2723 48.1699 32.662 48.4336 33.037 48.6445C33.412 48.8496 33.7899 49.002 34.1708 49.1016C34.5516 49.2012 34.9384 49.251 35.3309 49.251C35.8348 49.251 36.2714 49.1748 36.6405 49.0225C37.0155 48.8643 37.3055 48.6475 37.5106 48.3721C37.7157 48.0967 37.8182 47.7744 37.8182 47.4053C37.8182 46.9893 37.6923 46.6436 37.4403 46.3682C37.1942 46.0869 36.869 45.8467 36.4647 45.6475C36.0604 45.4424 35.6268 45.2432 35.1639 45.0498C34.7421 44.874 34.3143 44.6836 33.8807 44.4785C33.453 44.2734 33.0634 44.0303 32.7118 43.749C32.3602 43.4619 32.076 43.1162 31.8593 42.7119C31.6483 42.3076 31.5428 41.8184 31.5428 41.2441C31.5428 40.5 31.7303 39.8525 32.1053 39.3018C32.4803 38.7451 32.9989 38.3174 33.661 38.0186C34.3231 37.7139 35.079 37.5615 35.9286 37.5615C36.5262 37.5615 37.1385 37.6406 37.7655 37.7988C38.3983 37.9512 39.0223 38.1855 39.6376 38.502L38.7147 40.374C38.2987 40.1279 37.8563 39.9375 37.3876 39.8027C36.9188 39.6621 36.4706 39.5918 36.0428 39.5918C35.621 39.5918 35.2489 39.6592 34.9266 39.7939C34.6102 39.9229 34.3612 40.1104 34.1796 40.3564C34.0038 40.5967 33.9159 40.8779 33.9159 41.2002C33.9159 41.5811 34.0331 41.9033 34.2675 42.167C34.5077 42.4307 34.8212 42.665 35.2079 42.8701C35.5946 43.0693 36.0077 43.2656 36.4471 43.459C36.8866 43.6523 37.326 43.8604 37.7655 44.083C38.2108 44.2998 38.6151 44.5576 38.9784 44.8564C39.3475 45.1553 39.6405 45.5127 39.8573 45.9287C40.08 46.3447 40.1913 46.8457 40.1913 47.4316C40.1913 48.1934 39.9921 48.8643 39.5936 49.4443C39.201 50.0186 38.6473 50.4668 37.9325 50.7891C37.2177 51.1055 36.3827 51.2637 35.4276 51.2637C34.5721 51.2637 33.7518 51.126 32.9667 50.8506C32.1815 50.5752 31.4491 50.168 30.7694 49.6289ZM45.1518 55.3945H42.9897V42.2109H44.8969L45.0024 43.4414C45.3891 43.002 45.855 42.6592 46.3999 42.4131C46.9448 42.1611 47.5395 42.0352 48.1841 42.0352C49.0044 42.0352 49.7368 42.2344 50.3813 42.6328C51.0317 43.0312 51.5415 43.5762 51.9106 44.2676C52.2856 44.9531 52.4731 45.7324 52.4731 46.6055C52.4731 47.4785 52.2856 48.2607 51.9106 48.9521C51.5415 49.6377 51.0317 50.1797 50.3813 50.5781C49.7368 50.9766 49.0044 51.1758 48.1841 51.1758C47.5805 51.1758 47.021 51.0674 46.5053 50.8506C45.9897 50.6338 45.5385 50.3291 45.1518 49.9365V55.3945ZM47.7182 49.2246C48.2104 49.2246 48.6469 49.1133 49.0278 48.8906C49.4145 48.6621 49.7134 48.3516 49.9243 47.959C50.1411 47.5605 50.2495 47.1064 50.2495 46.5967C50.2495 46.0869 50.1411 45.6357 49.9243 45.2432C49.7075 44.8447 49.4087 44.5342 49.0278 44.3115C48.6469 44.083 48.2104 43.9688 47.7182 43.9688C47.2553 43.9688 46.8364 44.0742 46.4614 44.2852C46.0864 44.4902 45.7846 44.7744 45.5561 45.1377C45.3276 45.4951 45.1928 45.9053 45.1518 46.3682V46.8516C45.1928 47.3145 45.3247 47.7246 45.5473 48.082C45.7759 48.4395 46.0776 48.7207 46.4526 48.9258C46.8276 49.125 47.2495 49.2246 47.7182 49.2246ZM56.2208 39.8818C55.9161 39.8818 55.6583 39.7764 55.4473 39.5654C55.2423 39.3486 55.1397 39.0879 55.1397 38.7832C55.1397 38.4844 55.2423 38.2295 55.4473 38.0186C55.6583 37.8018 55.9161 37.6934 56.2208 37.6934C56.5313 37.6934 56.7921 37.8018 57.003 38.0186C57.2139 38.2295 57.3194 38.4844 57.3194 38.7832C57.3194 39.0879 57.2139 39.3486 57.003 39.5654C56.7921 39.7764 56.5313 39.8818 56.2208 39.8818ZM57.3018 51H55.1397V42.2109H57.3018V51ZM69.1618 51H66.9997V46.2627C66.9997 45.5537 66.821 44.9971 66.4636 44.5928C66.112 44.1885 65.6227 43.9863 64.9958 43.9863C64.5563 43.9863 64.1667 44.0889 63.8268 44.2939C63.487 44.4932 63.2204 44.7803 63.027 45.1553C62.8337 45.5303 62.737 45.9668 62.737 46.4648V51H60.5749V42.2109H62.3591L62.4294 43.626C62.7458 43.1104 63.1764 42.7178 63.7214 42.4482C64.2663 42.1729 64.8874 42.0352 65.5846 42.0352C66.6921 42.0352 67.5651 42.3721 68.2038 43.0459C68.8425 43.7197 69.1618 44.6426 69.1618 45.8145V51Z" fill="black"/>
</svg>
