<svg width="483" height="483" viewBox="0 0 483 483" fill="none" xmlns="http://www.w3.org/2000/svg">
<path d="M240.489 242.087C240.489 242.087 398.814 80.2828 405.24 73.8106C431.674 100.695 439.64 112.146 455.209 143.596C470.778 175.046 475.985 206.739 476.483 238.622C476.529 241.591 240.489 242.087 240.489 242.087Z" fill="#79AFD9"/>
<path d="M240.96 240.684C240.96 240.684 399.284 402.488 405.71 408.96C432.144 382.076 440.11 370.625 455.679 339.175C471.248 307.725 476.455 276.032 476.953 244.148C476.999 241.179 240.96 240.684 240.96 240.684Z" fill="#8E42A1"/>
<path d="M240.025 240.423C240.025 240.423 76.8161 85.5377 70.1955 79.2654C44.5972 106.947 36.986 118.637 22.3881 150.549C7.7902 182.461 3.55657 212.307 4.03584 244.191C4.08048 247.16 240.025 240.423 240.025 240.423Z" fill="#9999EB"/>
<path d="M240.495 242.347C240.495 242.347 77.2863 397.233 70.6657 403.505C45.0673 375.823 37.4561 364.134 22.8583 332.222C8.26037 300.31 4.02673 270.463 4.50601 238.58C4.55064 235.61 240.495 242.347 240.495 242.347Z" fill="#FCAFAF"/>
<path d="M237.444 242.831C237.444 242.831 77.05 83.0777 70.635 76.5952C97.7547 50.4021 109.276 42.5389 140.865 27.2512C172.453 11.9636 204.193 7.03898 236.081 6.82499C239.05 6.80506 237.444 242.831 237.444 242.831Z" fill="#DE3BC6"/>
<path d="M237.914 239.94C237.914 239.94 77.5204 399.693 71.1055 406.175C98.2251 432.369 109.747 440.232 141.335 455.52C172.924 470.807 204.663 475.732 236.551 475.946C239.521 475.966 237.914 239.94 237.914 239.94Z" fill="#1F7DA2"/>
<path d="M241.462 243.149C241.462 243.149 399.279 80.8503 405.59 74.2661C378.055 48.5101 366.409 40.8323 334.579 26.052C302.75 11.2717 270.936 6.85547 239.049 7.15168C236.08 7.17926 241.462 243.149 241.462 243.149Z" fill="#6FCF8F"/>
<path d="M241.932 239.621C241.932 239.621 399.75 401.92 406.06 408.504C378.525 434.26 366.879 441.938 335.05 456.719C303.221 471.499 271.406 475.915 239.519 475.619C236.55 475.591 241.932 239.621 241.932 239.621Z" fill="#F1F57C"/>
<path d="M71.1055 406.175C77.5204 399.693 237.914 239.94 237.914 239.94C237.914 239.94 239.521 475.966 236.551 475.946C204.663 475.732 172.924 470.807 141.335 455.52C109.747 440.232 98.2251 432.369 71.1055 406.175ZM71.1055 406.175L410.551 79.2654M76.1409 79.0895L410.203 406.242M6.01686 240.028L478.422 234.268M242.01 4L247.167 478.971M405.24 73.8106C398.814 80.2828 240.489 242.087 240.489 242.087C240.489 242.087 476.529 241.591 476.483 238.622C475.985 206.739 470.778 175.046 455.209 143.596C439.64 112.146 431.674 100.695 405.24 73.8106ZM405.71 408.96C399.284 402.488 240.96 240.684 240.96 240.684C240.96 240.684 476.999 241.179 476.953 244.148C476.455 276.032 471.248 307.725 455.679 339.175C440.11 370.625 432.144 382.076 405.71 408.96ZM70.1955 79.2654C76.8161 85.5377 240.025 240.423 240.025 240.423C240.025 240.423 4.08048 247.16 4.03584 244.191C3.55657 212.307 7.7902 182.461 22.3881 150.549C36.986 118.637 44.5972 106.947 70.1955 79.2654ZM70.6657 403.505C77.2863 397.233 240.495 242.347 240.495 242.347C240.495 242.347 4.55064 235.61 4.50601 238.58C4.02673 270.463 8.26037 300.31 22.8583 332.222C37.4561 364.134 45.0673 375.823 70.6657 403.505ZM70.635 76.5952C77.05 83.0777 237.444 242.831 237.444 242.831C237.444 242.831 239.05 6.80506 236.081 6.82499C204.193 7.03898 172.453 11.9636 140.865 27.2512C109.276 42.5389 97.7547 50.4021 70.635 76.5952ZM405.59 74.2661C399.279 80.8503 241.462 243.149 241.462 243.149C241.462 243.149 236.08 7.17926 239.049 7.15168C270.936 6.85547 302.75 11.2717 334.579 26.052C366.409 40.8323 378.055 48.5101 405.59 74.2661ZM406.06 408.504C399.75 401.92 241.932 239.621 241.932 239.621C241.932 239.621 236.55 475.591 239.519 475.619C271.406 475.915 303.221 471.499 335.05 456.719C366.879 441.938 378.525 434.26 406.06 408.504ZM479 241.522C479 372.677 372.673 479 241.513 479C110.352 479 4.02543 372.677 4.02543 241.522C4.02543 110.366 110.352 4.04324 241.513 4.04324C372.673 4.04324 479 110.366 479 241.522Z" stroke="black" stroke-width="8"/>
<circle cx="241.801" cy="241.5" r="37.5" fill="white"/>
<path d="M231.317 233.33C230.708 233.939 229.981 234.414 229.137 234.754C228.299 235.094 227.382 235.264 226.386 235.264C225.396 235.264 224.479 235.094 223.635 234.754C222.792 234.414 222.059 233.937 221.438 233.321C220.817 232.7 220.334 231.974 219.988 231.142C219.648 230.304 219.478 229.393 219.478 228.408C219.478 227.418 219.648 226.507 219.988 225.675C220.334 224.843 220.817 224.119 221.438 223.504C222.059 222.883 222.792 222.402 223.635 222.062C224.479 221.723 225.396 221.553 226.386 221.553C227.377 221.553 228.291 221.723 229.129 222.062C229.966 222.402 230.69 222.874 231.299 223.478L229.682 225.121C229.278 224.641 228.792 224.266 228.223 223.996C227.655 223.727 227.031 223.592 226.351 223.592C225.707 223.592 225.109 223.712 224.558 223.952C224.013 224.192 223.539 224.529 223.134 224.963C222.73 225.396 222.414 225.906 222.185 226.492C221.963 227.078 221.851 227.717 221.851 228.408C221.851 229.1 221.963 229.738 222.185 230.324C222.414 230.904 222.73 231.414 223.134 231.854C223.539 232.287 224.013 232.624 224.558 232.864C225.109 233.104 225.707 233.225 226.351 233.225C227.031 233.225 227.655 233.09 228.223 232.82C228.792 232.551 229.278 232.176 229.682 231.695L231.317 233.33ZM236.471 235H234.159V221.816H236.471V235ZM240.816 223.882C240.512 223.882 240.254 223.776 240.043 223.565C239.838 223.349 239.735 223.088 239.735 222.783C239.735 222.484 239.838 222.229 240.043 222.019C240.254 221.802 240.512 221.693 240.816 221.693C241.127 221.693 241.388 221.802 241.599 222.019C241.809 222.229 241.915 222.484 241.915 222.783C241.915 223.088 241.809 223.349 241.599 223.565C241.388 223.776 241.127 223.882 240.816 223.882ZM241.897 235H239.735V226.211H241.897V235ZM252.799 233.646C252.372 234.133 251.853 234.511 251.244 234.78C250.634 235.044 249.969 235.176 249.249 235.176C248.358 235.176 247.558 234.977 246.849 234.578C246.146 234.18 245.589 233.638 245.179 232.952C244.775 232.261 244.573 231.479 244.573 230.605C244.573 229.732 244.775 228.953 245.179 228.268C245.589 227.576 246.146 227.031 246.849 226.633C247.558 226.234 248.358 226.035 249.249 226.035C249.963 226.035 250.623 226.167 251.226 226.431C251.835 226.694 252.354 227.066 252.782 227.547L251.516 228.892C251.252 228.604 250.933 228.382 250.558 228.224C250.189 228.065 249.796 227.986 249.38 227.986C248.876 227.986 248.428 228.098 248.036 228.32C247.649 228.543 247.344 228.851 247.122 229.243C246.905 229.636 246.796 230.087 246.796 230.597C246.796 231.106 246.905 231.561 247.122 231.959C247.344 232.352 247.649 232.662 248.036 232.891C248.428 233.113 248.876 233.225 249.38 233.225C249.796 233.225 250.192 233.146 250.567 232.987C250.942 232.823 251.258 232.601 251.516 232.319L252.799 233.646ZM257.566 235H255.404V221.816H257.566V230.315L258.366 229.34L261.328 226.211H264.044L260.37 230.096L264.51 235H261.724L258.876 231.493L257.566 232.785V235ZM216.399 254.771C215.754 255.041 215.13 255.176 214.526 255.176C213.911 255.176 213.369 255.044 212.9 254.78C212.438 254.517 212.074 254.15 211.811 253.682C211.553 253.207 211.424 252.656 211.424 252.029V248.145H209.886V246.211H211.538V244.014H213.586V246.211H216.091V248.145H213.586V251.634C213.586 252.132 213.721 252.524 213.99 252.812C214.266 253.099 214.608 253.242 215.019 253.242C215.382 253.242 215.742 253.131 216.1 252.908L216.399 254.771ZM223.003 255.176C222.112 255.176 221.312 254.977 220.603 254.578C219.9 254.18 219.343 253.638 218.933 252.952C218.529 252.261 218.327 251.479 218.327 250.605C218.327 249.732 218.529 248.953 218.933 248.268C219.343 247.576 219.9 247.031 220.603 246.633C221.312 246.234 222.112 246.035 223.003 246.035C223.899 246.035 224.699 246.234 225.402 246.633C226.105 247.031 226.656 247.576 227.054 248.268C227.459 248.953 227.661 249.732 227.661 250.605C227.661 251.479 227.459 252.261 227.054 252.952C226.656 253.638 226.105 254.18 225.402 254.578C224.699 254.977 223.899 255.176 223.003 255.176ZM222.994 253.233C223.463 253.233 223.882 253.119 224.251 252.891C224.62 252.662 224.91 252.349 225.121 251.95C225.338 251.552 225.446 251.101 225.446 250.597C225.446 250.099 225.338 249.653 225.121 249.261C224.91 248.862 224.62 248.549 224.251 248.32C223.882 248.092 223.463 247.978 222.994 247.978C222.531 247.978 222.112 248.092 221.737 248.32C221.368 248.549 221.075 248.862 220.858 249.261C220.647 249.653 220.542 250.099 220.542 250.597C220.542 251.101 220.647 251.552 220.858 251.95C221.075 252.349 221.368 252.662 221.737 252.891C222.112 253.119 222.531 253.233 222.994 253.233ZM234.769 253.629L235.868 251.854C236.272 252.17 236.662 252.434 237.037 252.645C237.412 252.85 237.79 253.002 238.171 253.102C238.552 253.201 238.938 253.251 239.331 253.251C239.835 253.251 240.271 253.175 240.641 253.022C241.016 252.864 241.306 252.647 241.511 252.372C241.716 252.097 241.818 251.774 241.818 251.405C241.818 250.989 241.692 250.644 241.44 250.368C241.194 250.087 240.869 249.847 240.465 249.647C240.06 249.442 239.627 249.243 239.164 249.05C238.742 248.874 238.314 248.684 237.881 248.479C237.453 248.273 237.063 248.03 236.712 247.749C236.36 247.462 236.076 247.116 235.859 246.712C235.648 246.308 235.543 245.818 235.543 245.244C235.543 244.5 235.73 243.853 236.105 243.302C236.48 242.745 236.999 242.317 237.661 242.019C238.323 241.714 239.079 241.562 239.929 241.562C240.526 241.562 241.139 241.641 241.766 241.799C242.398 241.951 243.022 242.186 243.638 242.502L242.715 244.374C242.299 244.128 241.856 243.938 241.388 243.803C240.919 243.662 240.471 243.592 240.043 243.592C239.621 243.592 239.249 243.659 238.927 243.794C238.61 243.923 238.361 244.11 238.18 244.356C238.004 244.597 237.916 244.878 237.916 245.2C237.916 245.581 238.033 245.903 238.267 246.167C238.508 246.431 238.821 246.665 239.208 246.87C239.595 247.069 240.008 247.266 240.447 247.459C240.887 247.652 241.326 247.86 241.766 248.083C242.211 248.3 242.615 248.558 242.978 248.856C243.348 249.155 243.641 249.513 243.857 249.929C244.08 250.345 244.191 250.846 244.191 251.432C244.191 252.193 243.992 252.864 243.594 253.444C243.201 254.019 242.647 254.467 241.932 254.789C241.218 255.105 240.383 255.264 239.428 255.264C238.572 255.264 237.752 255.126 236.967 254.851C236.182 254.575 235.449 254.168 234.769 253.629ZM249.152 259.395H246.99V246.211H248.897L249.002 247.441C249.389 247.002 249.855 246.659 250.4 246.413C250.945 246.161 251.54 246.035 252.184 246.035C253.004 246.035 253.737 246.234 254.381 246.633C255.032 247.031 255.541 247.576 255.911 248.268C256.286 248.953 256.473 249.732 256.473 250.605C256.473 251.479 256.286 252.261 255.911 252.952C255.541 253.638 255.032 254.18 254.381 254.578C253.737 254.977 253.004 255.176 252.184 255.176C251.581 255.176 251.021 255.067 250.505 254.851C249.99 254.634 249.539 254.329 249.152 253.937V259.395ZM251.718 253.225C252.21 253.225 252.647 253.113 253.028 252.891C253.415 252.662 253.713 252.352 253.924 251.959C254.141 251.561 254.249 251.106 254.249 250.597C254.249 250.087 254.141 249.636 253.924 249.243C253.707 248.845 253.409 248.534 253.028 248.312C252.647 248.083 252.21 247.969 251.718 247.969C251.255 247.969 250.836 248.074 250.461 248.285C250.086 248.49 249.785 248.774 249.556 249.138C249.328 249.495 249.193 249.905 249.152 250.368V250.852C249.193 251.314 249.325 251.725 249.547 252.082C249.776 252.439 250.078 252.721 250.453 252.926C250.828 253.125 251.249 253.225 251.718 253.225ZM260.221 243.882C259.916 243.882 259.658 243.776 259.447 243.565C259.242 243.349 259.14 243.088 259.14 242.783C259.14 242.484 259.242 242.229 259.447 242.019C259.658 241.802 259.916 241.693 260.221 241.693C260.531 241.693 260.792 241.802 261.003 242.019C261.214 242.229 261.319 242.484 261.319 242.783C261.319 243.088 261.214 243.349 261.003 243.565C260.792 243.776 260.531 243.882 260.221 243.882ZM261.302 255H259.14V246.211H261.302V255ZM273.162 255H271V250.263C271 249.554 270.821 248.997 270.464 248.593C270.112 248.188 269.623 247.986 268.996 247.986C268.556 247.986 268.167 248.089 267.827 248.294C267.487 248.493 267.22 248.78 267.027 249.155C266.834 249.53 266.737 249.967 266.737 250.465V255H264.575V246.211H266.359L266.429 247.626C266.746 247.11 267.176 246.718 267.721 246.448C268.266 246.173 268.887 246.035 269.585 246.035C270.692 246.035 271.565 246.372 272.204 247.046C272.842 247.72 273.162 248.643 273.162 249.814V255Z" fill="black"/>
</svg>
